<svg width="512" height="512" viewBox="0 0 512 512" fill="none" xmlns="http://www.w3.org/2000/svg">
<g clip-path="url(#clip0)">
<path d="M375.133 170.828C376.445 196.742 409.676 236.98 405.812 288.32C402.355 334.25 380.707 390.031 336.391 418.246C336.566 420.781 336.664 423.133 336.664 425.266C336.664 453.215 321.969 469.617 292.125 478.398C292.152 478.394 450.641 443.883 450.68 274.711C450.715 102.144 373.41 136.777 375.133 170.828Z" fill="#ECECEC"/>
<path d="M360.867 397.699C353.641 405.496 345.492 412.445 336.391 418.242C336.566 420.777 336.664 423.133 336.664 425.265C336.664 453.215 321.969 469.617 292.125 478.398C292.125 478.398 324.023 471.453 359.203 448.527C362.18 441.851 363.664 434.14 363.664 425.265C363.664 418.16 362.625 408.676 360.867 397.699V397.699Z" fill="#BFBFBF"/>
<path d="M243.984 58.9609C243.984 58.9609 264.961 5.20312 282.938 8.92187C301.164 12.6914 297.625 73.3359 297.625 73.3359C297.625 73.3359 335.277 131.125 334.059 164.367C332.84 197.605 311.469 219.781 290.324 223.824C290.324 223.824 336.664 377.66 336.664 425.266C336.664 472.871 294.059 486.984 206.516 486.984C118.977 486.984 76.3711 472.871 76.3711 425.266C76.3711 377.66 122.711 223.824 122.711 223.824C101.566 219.781 80.1953 197.605 78.9766 164.367C77.7539 131.121 115.41 73.3359 115.41 73.3359C115.41 73.3359 111.871 12.6914 130.094 8.92187C148.07 5.20312 169.051 58.9609 169.051 58.9609H243.984Z" fill="#ECECEC"/>
<path d="M206.516 459.988C126.82 459.988 84.3711 448.285 77.4023 410.265C76.7383 415.976 76.3711 421.047 76.3711 425.265C76.3711 472.875 118.977 486.988 206.516 486.988C294.059 486.988 336.664 472.871 336.664 425.265C336.664 421.047 336.293 415.976 335.629 410.265C328.66 448.285 286.211 459.988 206.516 459.988V459.988Z" fill="#BFBFBF"/>
<path d="M130.094 8.92187C111.871 12.6914 115.41 73.3359 115.41 73.3359C115.41 73.3359 77.754 131.125 78.9767 164.367C79.6212 181.945 85.9024 196.422 94.8009 206.766C200.66 183.094 191.344 58.9609 191.344 58.9609H169.051C169.051 58.9609 148.07 5.20312 130.094 8.92187Z" fill="#787878"/>
<path d="M282.937 8.92187C301.164 12.6914 297.625 73.3359 297.625 73.3359C297.625 73.3359 335.277 131.125 334.059 164.367C333.414 181.945 327.133 196.422 318.234 206.766C212.371 183.094 221.687 58.9609 221.687 58.9609H243.984C243.984 58.9609 264.961 5.20312 282.937 8.92187Z" fill="#787878"/>
<path d="M127.531 309.281C127.531 309.281 134.84 503.281 162.762 503.281C190.68 503.281 191.344 328.387 191.344 328.387" fill="#DBDBDB"/>
<path d="M285.504 309.281C285.504 309.281 278.191 503.281 250.273 503.281C222.355 503.281 221.688 328.387 221.688 328.387" fill="#DBDBDB"/>
<path d="M158.34 136.207C158.34 125.555 151.621 117.207 143.043 117.207C134.469 117.207 127.75 125.551 127.75 136.207C127.75 146.859 134.469 155.203 143.043 155.203C151.621 155.203 158.34 146.859 158.34 136.207Z" fill="black"/>
<path d="M284.812 136.207C284.812 125.555 278.094 117.207 269.52 117.207C260.941 117.207 254.223 125.551 254.223 136.207C254.223 146.859 260.941 155.203 269.52 155.203C278.094 155.203 284.812 146.859 284.812 136.207Z" fill="black"/>
<path d="M206.281 194.227C210.445 194.227 213.816 190.855 213.816 186.691V169.797C222.617 167.273 229.434 160.609 229.434 153.445C229.434 150.82 228.422 144.473 219.059 142.258C215.988 141.531 212.168 141.219 206.281 141.219C200.398 141.219 196.578 141.531 193.504 142.258C184.141 144.473 183.129 150.82 183.129 153.445C183.129 160.609 189.945 167.273 198.746 169.797V186.691C198.746 190.855 202.121 194.227 206.281 194.227Z" fill="black"/>
<path d="M380.422 209.242C389.715 230.887 401.281 257.82 399.019 287.91C397.242 311.523 390.59 336.098 380.285 357.105C378.453 360.844 379.996 365.355 383.734 367.187C384.801 367.711 385.934 367.961 387.047 367.961C389.832 367.961 392.508 366.41 393.82 363.742C404.945 341.051 412.129 314.523 414.047 289.039C416.59 255.266 404.215 226.449 394.269 203.293C388.582 190.047 383.668 178.605 383.234 170.039C382.773 160.922 390.574 151.637 399.934 150.168C405.363 149.312 423.992 149.918 435.641 193.519C436.715 197.539 440.844 199.926 444.867 198.855C448.887 197.781 451.277 193.648 450.203 189.629C444.91 169.832 437.32 155.094 427.637 145.824C418.805 137.367 408.125 133.625 397.59 135.277C380.519 137.961 367.324 153.894 368.184 170.801C368.754 182.07 374.16 194.664 380.422 209.242Z" fill="black"/>
<path d="M459.153 274.801C459.156 254.66 458.11 236.305 456.039 220.242C455.512 216.113 451.727 213.203 447.606 213.73C443.477 214.262 440.563 218.039 441.09 222.164C443.078 237.594 444.082 255.301 444.078 274.797C444.071 312.133 436.071 345.676 420.301 374.5C407.696 397.547 390.082 417.719 367.953 434.453C358.27 441.777 348.539 447.801 339.406 452.719C342.875 445.016 344.586 436.172 344.586 426.078C344.586 425.074 344.563 424.012 344.524 422.922C356.567 414.641 367.446 404.098 376.903 391.504C379.403 388.176 378.731 383.453 375.403 380.953C372.074 378.453 367.352 379.125 364.852 382.453C358.238 391.258 350.879 398.922 342.883 405.363C335.723 352.43 307.992 256.301 299.883 228.816C313.098 223.855 325.781 212.965 333.719 197.25L344.449 203.082C348.063 205.039 352.711 203.664 354.668 200.055C356.656 196.398 355.301 191.824 351.645 189.836L339.141 183.043C340.629 177.566 341.582 171.687 341.899 165.434L354.293 163.316C358.399 162.617 361.156 158.727 360.457 154.621C359.754 150.52 355.863 147.766 351.758 148.461L340.828 150.324C335.27 119.145 311.461 79.9375 305.465 70.418C305.66 65.3594 305.934 53.332 304.821 40.8476C302.602 15.957 295.985 2.71093 284.594 0.355462C273.41 -1.95313 262.16 6.98827 250.199 27.707C245.168 36.418 241.149 45.2305 238.895 50.4805H173.668C171.414 45.2305 167.395 36.418 162.363 27.707C150.403 6.98827 139.153 -1.95704 127.969 0.355462C116.578 2.71093 109.961 15.957 107.742 40.8476C106.629 53.3281 106.903 65.3594 107.102 70.418C101.102 79.9375 77.2971 119.145 71.7346 150.324L60.8049 148.461C56.7033 147.762 52.8088 150.52 52.1096 154.621C51.4104 158.727 54.1682 162.617 58.2697 163.316L70.6643 165.434C70.9807 171.687 71.9377 177.566 73.4221 183.043L60.9182 189.836C57.2619 191.824 55.9104 196.398 57.8947 200.055C59.8557 203.664 64.5002 205.043 68.1135 203.082L78.844 197.25C86.7854 212.969 99.469 223.859 112.688 228.816C110.539 236.113 106.977 248.363 102.805 263.273C101.684 267.281 104.024 271.441 108.031 272.562C112.039 273.688 116.199 271.344 117.321 267.336C124.086 243.141 129.238 226.016 129.289 225.844C130.563 221.625 127.813 217.098 123.488 216.27C105.524 212.836 86.7619 193.656 85.6604 163.652C85.2072 151.277 91.0822 132.434 102.653 109.164C111.66 91.0547 120.961 76.7148 121.055 76.5742C121.934 75.2226 122.356 73.6289 122.262 72.0195C122.254 71.875 121.422 57.168 122.754 42.1875C124.645 20.9922 129.363 15.457 131.024 15.1172C132.672 14.7656 139.16 17.7031 149.238 35.1172C156.41 47.5078 161.567 60.625 161.617 60.7578C162.742 63.6484 165.531 65.5508 168.637 65.5508H243.93C247.035 65.5508 249.821 63.6484 250.949 60.7578C251 60.625 256.094 47.6406 263.25 35.2461C273.371 17.7226 279.891 14.7734 281.543 15.1172C283.196 15.457 287.899 20.9648 289.797 42.0469C291.145 57.0312 290.313 71.875 290.301 72.0234C290.211 73.6289 290.633 75.2266 291.512 76.5742C291.606 76.7148 300.906 91.0547 309.914 109.168C321.485 132.434 327.36 151.277 326.903 163.652C325.805 193.656 307.039 212.836 289.074 216.27C284.75 217.098 282.004 221.629 283.274 225.848C283.738 227.383 329.516 379.887 329.516 426.078C329.516 441.531 324.711 452.516 314.399 460.648C305.629 467.562 292.645 472.551 274.934 475.797C279.113 459.297 282.821 436.426 285.957 407.824C291.27 359.383 293.156 310.312 293.176 309.824C293.332 305.664 290.09 302.164 285.93 302.008C281.801 301.832 278.274 305.094 278.113 309.254C278.098 309.707 276.348 355.137 271.488 401.406C268.649 428.414 265.328 450.383 261.617 466.699C256.25 490.281 251.512 495.648 250.156 496.75C248.11 495.234 238.238 484.246 232.539 411.82C229.258 370.117 229.063 329.117 229.063 328.707C229.047 324.555 225.676 321.199 221.528 321.199C221.52 321.199 221.508 321.199 221.496 321.199C217.336 321.215 213.977 324.602 213.992 328.762C213.992 329.207 214.199 373.504 217.86 417.227C220.024 443.121 222.965 463.832 226.602 478.789C226.719 479.273 226.844 479.762 226.965 480.258C220.5 480.457 213.664 480.559 206.281 480.559C198.899 480.559 192.067 480.457 185.598 480.258C185.723 479.762 185.844 479.27 185.961 478.789C189.598 463.832 192.543 443.121 194.707 417.227C198.363 373.504 198.571 329.207 198.574 328.762C198.59 324.602 195.227 321.215 191.067 321.199C191.055 321.199 191.047 321.199 191.035 321.199C186.887 321.199 183.516 324.555 183.5 328.707C183.5 329.117 183.309 370.043 180.031 411.746C174.332 484.242 164.453 495.234 162.406 496.75C161.465 495.984 158.899 493.164 155.625 483.648C155.496 482.988 155.285 482.355 154.996 481.766C153.723 477.828 152.356 472.898 150.946 466.699C147.235 450.383 143.914 428.414 141.074 401.406C136.215 355.137 134.465 309.707 134.449 309.254C134.289 305.094 130.789 301.828 126.633 302.008C122.473 302.164 119.231 305.664 119.387 309.824C119.406 310.312 121.297 359.383 126.606 407.824C129.742 436.43 133.453 459.297 137.633 475.797C119.957 472.559 106.992 467.59 98.2268 460.699C87.8713 452.559 83.0471 441.559 83.0471 426.078C83.0471 405.707 92.1643 360.816 109.406 296.262C110.481 292.238 108.094 288.109 104.071 287.035C100.055 285.965 95.9221 288.348 94.844 292.371C77.0158 359.113 67.9768 404.102 67.9768 426.078C67.9768 446.273 74.8244 461.473 88.9104 472.547C100.918 481.984 118.504 488.328 142.567 491.887C146.836 502.973 152.922 512 162.317 512C171.16 512 176.899 504.379 180.797 495.172C188.692 495.477 197.078 495.629 206.281 495.629C215.485 495.629 223.871 495.477 231.766 495.172C235.664 504.379 241.403 512 250.246 512C259.645 512 265.727 502.973 270 491.887C278.774 490.586 286.676 488.91 293.77 486.855C297.09 486.164 459.113 449.242 459.153 274.801V274.801Z" fill="black"/>
</g>
<defs>
<clipPath id="clip0">
<rect width="512" height="512" fill="white"/>
</clipPath>
</defs>
</svg>
